/* XPM */
static char *rot_1[] = {
/* columns rows colors chars-per-pixel */
"128 128 69 1 ",
"  c None",
". c #72B998",
"X c #1DA065",
"o c #00993D",
"O c #C4CCD8",
"+ c #52A17E",
"@ c #25A269",
"# c #ACAEB0",
"$ c #78C3AA",
"% c #049944",
"& c #64B28E",
"* c #BBC1CA",
"= c #64A889",
"- c #44A67A",
"; c gray78",
": c #33A869",
"> c #B5BBC6",
", c #17A154",
"< c #0C9953",
"1 c #90D3AB",
"2 c #D8D8D8",
"3 c #25A75B",
"4 c #D3DBE8",
"5 c #CCD1DB",
"6 c #E7E7E7",
"7 c #159957",
"8 c #A1CAC9",
"9 c #56A785",
"0 c #95A6B4",
"q c #A5C5D7",
"w c #C1CEE3",
"e c #87B8C6",
"r c #97BEC9",
"t c #2BA472",
"y c #C6E3E1",
"u c #A5DBBA",
"i c #B0DEC6",
"p c #199B64",
"a c #269866",
"s c #C9D5E7",
"d c #A6B8D6",
"f c #6DADB0",
"g c #A8B4C7",
"h c #279876",
"j c #B8C4D8",
"k c #65A697",
"l c #73A498",
"z c #469877",
"x c #349669",
"c c #23965B",
"v c #379876",
"b c #CBEAD8",
"n c #DBF1E4",
"m c #E5F5EB",
"M c #3FB075",
"N c #B7E2C8",
"B c #FEFEFE",
"V c #47B575",
"C c #EDF7F2",
"Z c #93ACD6",
"A c #80CD9E",
"S c #ACDEC1",
"D c #A1AEC4",
"F c #D7ECE2",
"G c #42946D",
"H c #76C898",
"J c #B7D9DC",
"K c #B2BED4",
"L c #11964D",
/* pixels */
"                                                              .XoX.                                                             ",
"                                                O             +oooo@#                                                           ",
"                                              $X%@&$*         +ooooo%.         =X=                                              ",
"                                              -ooooo%+$;      #:oooooo+>      &ooo=                                             ",
"                                              :oooooooo%.>      .,ooooo<#     @oooo+                                            ",
"                                              1@ooooooooo%=;      =%ooooo.    $%oooo+                                           ",
"                                                $.&Xooooooo%.2     13ooooo&    1,oooo=                                          ",
"                                 4O55O26            $&<ooooooX#      =ooooo.    1<oooo.                                         ",
"                               #+<%%%%7@+.$85         8=3oooooo&      .%oooo&    .,oooo$      $.#                               ",
"                               9oooooooooooo%+$>         .,ooooo+;     .%oooo$    .%ooo,;    =oo%#                              ",
"                               -oooooooooooooooo+#;       .&oooooX*     .%ooo%#    .oooo=    9ooo-                              ",
"                               #,o%%%<oooooooooooo<.5       $,oooo<>     .oooo,     -oooo$   =oooo.                             ",
"                                 880qw$er=t7oooooooo<.2      1@oooo<>     =oooo=     ,ooo@    Xooo<>                            ",
"                                           y$9:oooooooX8       =oooo,*     :oooo#    .oooo.   &oooo&                            ",
"                                               $+<oooooo=5      -oooo:;    u,oooX     :oooX    =ooo%*                           ",
"                            248*Ow56             i.<ooooo:>      +oooo=     .oooo.    .oooo.   u%ooo&                           ",
"                      68..=p<oooo%%a==#8*          $9ooooo%$      9oooo.     :ooo,     :ooo-    9oooX                           ",
"                   2.=7ooooooooooooooooo%+$>         1,ooooo.     iXooo%1    .oooo.    =oooo#   $oooo.                          ",
"                  #<ooooooooooooooooooooooo%+#;       1-ooooo.     .%ooo@     :ooo,     ,ooo&    :ooo=     $.*                  ",
"                  7ooooooooo%<7p%77%oooooooooo<.5       .%oooo&     &oooo.    1oooo.    9ooo@    -ooo<    =oo,*                 ",
"                  =oooo<:=.rr 5  sdf$.+p%ooooooo<.5      .%oooo$     9ooo<;    -ooo+    1oooo#   $oooo.   7ooo.                 ",
"                   +-=.O                8=tooooooo@>      &%ooo%8    1%ooo.    .ooo%>    ,ooo.    3ooo&   +ooo-                 ",
"                                           89<oooooo=O     1%oooX8    =ooo<     ,ooo.    -ooo=    &ooo+   =ooo%                 ",
"                                             8.<ooooo:*     .oooo+    .%ooo&    -ooo+    &ooo-    .oooX    %ooo.                ",
"                        O;80##.g>#O6           0=ooooo<#     :oooo.    -ooo@    &ooo,    .ooo%    .ooo%    Xooo=                ",
"                   6#$.:<ooooooooo<X=.8O         1Xoooo%.     :ooo<*   .oooo$   &oooo.    %ooo.    oooo.   9ooo=                ",
"                6#.Xooooooooooooooooooo%+#O       8+ooooo$    1%ooo&    :ooo=    ,ooo=    ,ooo.    ,ooo.   9ooo@                ",
"              *$Xooooooooooooooooooooooooo%=>       &ooooo$    &oooo#   &ooo:    -ooo&    ,ooo=    :ooo9   .ooo%                ",
"            O.%ooooooooo%<X-+==9+h<oooooooooo+.      .ooooo.   8,ooo+   .oooo#   -ooo-    -ooo=    -ooo&   .oooo                ",
"           .<ooooooo%+&0rj       2rr.kXoooooooo=>     .%ooo%*   9oooo#   ,ooo=   =ooo-    :ooo=    ,ooo9    %ooo.               ",
"         #-oooooo%9$*                  r&Xoooooo%=2    .oooo:;  5,ooo&   -ooo=   9oooX    XoooX    :ooo:    %ooo$               ",
"        $oooooo<&8                        .-oooooo@>    .oooo=   =ooo<   +ooo@   &ooo,    :ooo=    @ooo=    %ooo.   >&l;        ",
"        +oooo<.8                            .+ooooo%.    :oooo.  u%ooo.  .ooo%   =ooo,    @ooo9    ,ooo9    %ooo&   ,oo:        ",
"        =ooo=8          2*>0$0.0$#*O          $7ooooo&   *,ooo:   -ooo=   oooo#  9ooo,    ,ooo:    %ooo&    %ooo.   oooo        ",
"         .&.        >$&+<oooooooooo7@l.#2      8=ooooo=   .oooo.  &ooo<   %ooo.  &ooo7    %ooo.    oooo     oooo    oooo.       ",
"                 #.:%ooooooooooooooooooop&#      .%oooo9   =ooo%> 1oooo.  ,ooo&  +ooo:   .oooo    &ooo%    .ooo%    oooo$       ",
"              2#+oooooooooooooooooooooooooo@.O    $7oooo=  8%ooo.  :ooo&  ,ooo+  :ooo,   &ooo,    =ooo:    +ooo3    oooo.       ",
"             $Xoooooooooo<X+===k=+a%ooooooooo<.;   8,oooo&  +ooo%; =ooo+  @ooo=  =ooo-   =ooo-    @ooo:    +ooo:    oooo.       ",
"           #@ooooooo%-=.#O        5r0&9<ooooooo<.   #Xoooo. u%ooo& &ooo:  ,ooo&  ,ooo-   @ooo-    ,ooo=    +ooo=    oooo        ",
"         ;=ooooooo-=*                  >.=%oooooo->  1<ooo%# =ooo@ =ooo%  ,ooo:  ,ooo=  #oooo.   .oooo1    7ooo9   .ooo%        ",
"        .7ooooo%=1                        $.7ooooo%.  $%ooo: .oooo$1oooo  ,ooo& $oooo1  =ooo,    =ooo3    $oooo1   =ooo,        ",
"       .oooooo=8                6           ;=<ooooo+; &oooo& @ooo. %ooo$ %ooo. +ooo,   +ooo:    ,ooo=    =ooo:    -ooo:        ",
"      =oooooX$           >#.l=zxxpz+l..g*     8=oooooX> -ooo%>-oooX <ooo=&ooo%  +ooo-  #oooo.   &oooo1    Xooo:    +ooo9        ",
"    *:ooooo.;        >$&cooooooooooooooo%x.#;   .<oooo<>8%ooo+1oooo8,ooo==oooX  %ooo&  9ooo,    :ooo:    $oooo.    <ooo&        ",
"   ;-oooo<.       O#=%oooooooooooooooooooooo<.#  8-oooo<#.oooo1,ooo.,ooo&@ooo: &ooo%  >%ooo&   $oooo.    9ooo:    &ooo%.        ",
"  5+oooo,1      O.7oooooooooooooooooooooooooooo-# O=oooo<8,ooo-=ooo9,ooo=:ooo- Xooo=  +ooo%1   @ooo:    8%ooo=    =ooo:         ",
"  +oooo:*      .7oooooooo<@..l$r08#fl.=v%oooooooo:.29oooo7.oooo-ooo=%ooo$%ooo..oooo. #%ooo-   .oooo.    =ooo%u    Xooo9   #ll#  ",
"  %ooo,8     #XoooooooX.#*              *.97ooooooo+*&oooo@,ooo%ooo<oooo.ooo% +ooo:  :ooo%1  ><ooo-    #%ooo=    #oooo.   @oo<  ",
"  =oo,#    #=oooooo%&1                     O$+%ooooo%.9ooooooooooooooooo+ooo9.oooo. .oooo.   +ooo%.    =ooo%1    =ooo,    oooo. ",
"   =$8    #,ooooo%&r            2>0#rl080>5   8=%ooooo-7oooooooooooooooooooo.@ooo@ #%ooo3   &oooo-    .oooo&    #%ooo=   =ooo%  ",
"         .%ooooo9O          g$l+<%ooooooo%%z=$0*#+ooooooooooooo%%oooooooooo%.oooo& ,ooo%1  $%ooo:    #7ooo,     =ooo%    9ooo-  ",
"        =ooooo:$         #.aooooooooooooooooooo<=8.<ooooooo:1bnmmnb1:oooooo:%ooo- -oooo=  ><ooo%.    +oooo.    #%ooo=    cooo+  ",
"       +ooooo=b       O.cooooooooooooooooooooooooo<-%ooooMNBBBBBBBBBBbVoooooooo%u&oooo:  #7oooo.    =oooo&     =ooo%.   $oooo.  ",
"      =oooo%.       0=%oooooooooo<X-99=+37%ooooooooooooo1CBBCCC66CCCBBBu%oooooo$+oooo:i $<oooo&    .oooo3i    #oooo&    =ooo:   ",
"     =oooo,1      O.<ooooooo%:.$.5       *Z8.+7ooooooo%NBBCC        6CBBb%oooo:+oooo,u #<oooo-    .oooo%A    *,ooo,S    ,ooo9   ",
"    &oooo<1      .Xoooooo%=1#          4Dg>l088.kpooooiBBC            6BBN%ooo%oooo<. =ooooo9    .oooo%.     +oooo.    .oooou   ",
"   #%ooo%$      .oooooo,.$        5>l=x7%ooooooo77oooABBC              CBB1ooooooo,u*-ooooo&    &ooooo.     =oooo-     7ooo-    ",
"  *@ooo%.     >+ooooo<=5       ;#=7ooooooooooooooooo3CBC                CBC:ooooo38.%ooooo=   ;-ooooo.     $oooo3     =oooo&    ",
"  =oooo.     #<ooooo&8       >=<ooooooooooooooooooooSBB6                6CBNoooo-.7ooooo%$   #7oooo%&     #%ooo%$    #%ooo:     ",
" .oooo+     #<oooo,.       #9%ooooooooo%%X-+++-p%oo%CBC                  CBC,oo%poooooo-8  >+ooooo7$     .%oooo1     =ooo%.     ",
" :ooo<.    .%oooo-*      *=oooooooo<=..*O 6;#.=a%oo.BB6                  6BB.oooooooo,.  >l%ooooo:i     .%oooo=     #oooo9      ",
".oooo.    .%oooo=2      .%oooooo<&.*    0.+%ooooooouBC                    CBioooooo%&; >=%ooooo%=     *=ooooo=     ><ooo,i      ",
",ooo:    #<oooo9      *+oooooo:.O    >$@oooooooooooNBC                    CBboooo%=>>=xooooooo:1     0Xooooo.      :oooo.   #l.0",
"ooooA   *Xoooo.      .<ooooo@$2    *l<ooooooooooooobBC                    CBFooop=+<oooooooo,.     *.ooooo%$      9oooo-    Xoo7",
":oo9    +oooo&      &ooooo%.     *=%ooooooo%:l=7ooobBC                    CBFooooooooooooo,$;    5l7ooooo,$      =oooo:    .oooo",
"*..    &oooo-      =ooooo-i     $7oooooo%-$*>9oooooNBC                    CBboooooooooo%9.     #.7oooooo&;      =oooo,u    :ooo:",
"      8%ooo,8     =ooooo&     >=oooooo,.8 >+ooooooouBC                    CBuooooooo%=.8    #$+%oooooo,.      O-oooo,u    &ooooA",
"      +ooo%$     =oooo%.     #7ooooo,.;  .%oooooooo&BB6                  6BB.ooo-&#855**..l@%ooooooo%.;      >Xoooo,1    #%ooo- ",
"     $oooo&     &oooo,1     .%oooo%&;  #@oooooo@%oo%mBC                  CBC%ooo777xa7%%oooooooooo%&8       .%oooo,1     @ooo%$ ",
"     :ooo3     .oooo%.     &ooooo:$   .%ooooo:$@oooo1BB6                6BBuoooooooooooooooooooo@.;       >+oooooXS     =oooo&  ",
"    &oooo&    >,ooo%1     &ooooo=5   =ooooo,.>7ooooo,mBC                CBC,ooooooooooooooooo:.8        g=%ooooo-8     .oooo:   ",
"    -ooo3     @oooo.     =ooooo.   ;+ooooo9O#%ooooooo&BBC              CBB.ooopX<%oooo%<@=.18         #=%ooooo%.      $%ooo%u   ",
"   .oooo.    .oooo=     .oooo%$   ;:oooo%$ .%oooo,oooo1BBC6          6CBB1oooo<+088r8885           >.Xooooooo-8      .%oooo$    ",
"   =ooo,    >%ooo:     .%ooo%1    +oooo,1 #%oooo&:ooooo1BBBC6      6CBBB1oooooooo%+l00jO    5*>0.=7oooooooo,$       .%oooo&     ",
"   <ooo&    +oooo1    >,oooo.    +ooooX8 #,oooo..ooooooo.mBBBCCCCCCBBBm.oooooooooooooo<pxzvap<ooooooooooo,.O       =ooooo.      ",
"  =oooo$   $oooo-     +oooo.    =oooo@u  @oooo&#ooooooooo,1mBBBBBBBBmu,oooo%93oooooooooooooooooooooooo%-$O       >+ooooo&       ",
"  9ooo,    +ooo,i    =oooo=    .oooo,1  =oooo- Xooo%3oooooo%&1NbbNu&%ooooooo%.8.@%ooooooooooooooooo%-.8         $7ooooo.        ",
"  :ooo=   .%ooo&    ><ooo,    *,ooo%1  .oooo- =oooo.%ooooooooooooooooooooooooox#28$.9t%oooooo%<:=.1*          >+ooooo%$         ",
"  %ooo=   &ooo<i    =oooo1    +oooo.   ,ooo,u ,ooo:.ooo%oooooooooooooooo,9ooooooG.    ;88r188OO             #=%ooooo:1    #ll>  ",
" .ooo%    7ooo&    .%ooo=    .oooo=   =ooooH .oooo1@ooo-oooooooooooo%oooo+$,ooooooxl>                    O.+%oooooo&O    #<oo+  ",
"  ,oo-   =oooo.    =ooo%u    Xooo,N  l%ooo9  Xooo- %ooo&ooo%3ooo%ooo,-oooo=;&%oooooo%+l#;            5gl=<ooooooo-8     #,ooo<  ",
"  *&.N   =ooo:    #%ooo.    =oooo.   =ooo%1 .oooo.=ooo%.ooo,&ooo9oooo.:oooo+51-ooooooooopzl..0D0l0l=9pooooooooo@$      #7oooo&  ",
"         <ooo=    +ooo,     Xooo3   #%ooo.  Xooo: Xooo:=ooo,&ooo+9ooo,8,oooo-> 1=%ooooooooooooooooooooooooooo-.b      .<oooo=   ",
"        .oooo.    7ooo=    =oooo$   +ooo,u  %ooo& +ooo==oooXAooo%uoooo=1,oooo@#  8.:oooooooooooooooooooooo,.1        .%oooo-    ",
"        =ooo,    +oooo$    :ooo-    ,ooo&  =ooo%  <ooo&9ooo,1%ooo.=ooo%#S3oooo%l    $$=,oooooooooooooo%-.15        >+ooooo=     ",
"        Xooo:    +ooo:    .oooo.   .ooo%u  @ooo9  oooo&.ooo% :ooo=i%ooo- i-oooooz>     O81..&99-9=...15           .7ooooo&      ",
"        -ooo-    <ooo.    =ooo3    -ooo-   Xooo= .ooo% .ooo% =oooX .oooo= i=ooooo%=0                            .+ooooo%.       ",
"        ,ooo&   .oooo.    @ooo=    %ooo&  .oooo1 +ooo, .oooolAoooo= :oooo.  1%ooooo%lr                       O#+oooooo:8        ",
"        <ooo:   =ooo<    1ooooA   =ooo%   =ooo,  =ooo,  <ooo. :ooo+ 1,ooo%#  8-oooooooz.>                 ;g=poooooo%.5         ",
"        oooo$   +ooo=    +ooo,    +ooo3   9ooo-  9ooo:  :ooo= &ooo%# 1%ooo7#   13ooooooo%xl0f>4      5000+7oooooooo+1           ",
"        oooo    :ooo-    -ooo-    :ooo=   -ooo:  9ooo,  =ooo- N,ooo=  .oooo<0   O.@oooooooooo7vz+9+zxp%oooooooooo:1             ",
"       .ooo%    ,ooo&    Xooo9    <ooo=   :ooo-  .ooo,  .ooo@  .ooo%8  =oooo%0    F$-ooooooooooooooooooooooooo%&8               ",
"       $oooo    oooo.    %ooo+   $oooo.   Xooo&  =ooo,  $oooo# N,ooo-   .oooo%l      i.-%oooooooooooooooooo<=.8                 ",
"       .oooo   .oooo    $oooo1   =ooo,    7ooo-  .ooo%   ,ooo.  .oooo.   &oooooz#       J1&9X<oooooooo<@&$1O        .==         ",
"       8oooo   .ooo%    +ooo,    -ooo,    ,ooo=  uoooo#  =ooo+   ,ooo<#   .ooooo<.          Fj18r.81$i5           0Gooo=        ",
"        -oo:   =ooo%    =ooo,    +ooo:    ,ooo&   %ooo&  .oooo.  1oooo+    1,oooooa.2                           #=%oooo:        ",
"        N.Ai   $ooo%    =ooo-    :ooo:    ,ooo-   -ooo=   ,ooo=   .oooo=    i-oooooox+>                       >+%ooooo%.        ",
"               &ooo%    +ooo,    =ooo:    @ooo=   9ooo=   9ooo%   b:oooo+     .%oooooo%llg                 >lzooooooo=;         ",
"               $oooo    &ooo:    9ooo-    :ooo+   &ooo,   u%ooo=   u,oooo.     i=oooooooo<+llg*     6 #rl+poooooooo@$           ",
"                oooo$   -ooo-    9ooo@    =ooo:   1oooo.   =ooo%*   1%oooo.      8&%oooooooooo%h7+xvp7%oooooooooo31b            ",
"                %ooo=   &ooo@    &oooX    -ooo+    ,ooo=   u%ooo=    1%oooo9       8.,ooooooooooooooooooooooooo-$               ",
"                :ooo-   .ooo,    &ooo,    &ooo<    =oooX    .oooo.    .%oooo+*       21=,oooooooooooooooooo%-.u                 ",
"                =ooo9   &oooo    1oooo    1oooo$   Aoooo.   u,ooo7#    1%oooo7l         F8..-,%%oooooo%@&$$N                    ",
"                &ooo,    %ooo.    %ooo$    ,ooo&    :ooo+    Aoooo+     u,ooooo+>             sO81818NO                         ",
"                Aooo%#   ,ooo=    :ooo=    =ooo-    .ooo%#    =oooo.     i-ooooo%=l                                             ",
"                 %ooo&   -ooo-    =ooo+    .ooo%;    ,ooo=    N:ooool      .%ooooo%=0                                           ",
"                 =ooo+   &oooX    =ooo<    u%ooo=    .oooo.    1%oooo.      u:ooooooo7l0D               #l9<+*                  ",
"                 .oooX   .oooo.   1oooo.    =ooo-     ,ooo:     1%oooo.       1,oooooooo<+=flD0D>K0D.l=pooooo=                  ",
"                 i,oo=    ,ooo9    :ooo+    .oooo.    .oooo=     Aooooo&       2$:ooooooooooooo<%L%oooooooooo-                  ",
"                  iAA     &ooo@    .ooo<     :ooo:     -ooo%#     Aoooooz*       F1=%ooooooooooooooooooooooo:#                  ",
"                          .oooo.   uoooo&    .oooo$    1%ooo7#     1%oooo7l         O1&,oooooooooooooooo%:.1F                   ",
"                           3ooo+    -ooo:     ,ooo:     .oooo:      1,ooooo+#          Fi$.&-X,%<<,X9..8N                       ",
"                           .oooo#   .oooo=    .oooo&     =oooo-      N-ooooo%+0              64yy2F                             ",
"                           i,ooo+    :ooo@     :ooo%>    b:oooo-      F.%ooooo%=.                                               ",
"                            .oooo.   .oooo&    1ooooX     i3oooo+>      u-ooooooo<=.>                                           ",
"                            N,ooo,    -ooo<$    .oooo=     u,oooo7#       1,oooooooo%t==fr00rlDj                                ",
"                             .oooo=   1oooo+     :oooo=     S,oooo%=       bA:ooooooooooooooooo%l                               ",
"                              :ooo:    &oooo+    u,oooo.     i:ooooo+8       F1&%ooooooooooooooo-                               ",
"                              u,oo.     3oooo.    1%oooo.     N=ooooo%+>        5A.@oooooooooooo+                               ",
"                               u.1      1%ooo%$    Aooooo+      .%ooooo<&#         681$.9:,,,,@=S                               ",
"                                         Aoooo%=    .ooooo=;     1-oooooo%+.               6F6                                  ",
"                                          &oooo%#    .ooooo7=      A,ooooooo%9..                                                ",
"                                           &oooo%.    1%ooooo&*     N.,ooooooooo7$                                              ",
"                                            =oooo+     1,ooooo,+*     N.3oooooooo:                                              ",
"                                             &ooo9      N-ooooooX#       A&%ooooo:                                              ",
"                                              A-.         .,ooooo+         F1.=,-1                                              ",
"                                                           N=%ooo@             2                                                ",
"                                                             u9,-                                                               "
};
