/* XPM */
static char *rot_2[] = {
/* columns rows colors chars-per-pixel */
"128 128 60 1 ",
"  c None",
". c #CCD1DB",
"X c #ACAEB0",
"o c #BBC1CA",
"O c #1DA065",
"+ c #52A17E",
"@ c #25A269",
"# c #00993D",
"$ c #44A67A",
"% c #72B998",
"& c gray78",
"* c #B5BBC6",
"= c #049944",
"- c #64B28E",
"; c #33A869",
": c #64A889",
"> c #78C3AA",
", c #90D3AB",
"< c #17A154",
"1 c #D8D8D8",
"2 c #E7E7E7",
"3 c #A1CAC9",
"4 c #D7ECE2",
"5 c #56A785",
"6 c #159957",
"7 c #B0DEC6",
"8 c #EDF7F2",
"9 c #D3DBE8",
"0 c #469877",
"q c #0C9953",
"w c #269866",
"e c #73A498",
"r c #C4CCD8",
"t c #A5DBBA",
"y c #95A6B4",
"u c #A8B4C7",
"i c #25A75B",
"p c #97BEC9",
"a c #E5F5EB",
"s c #199B64",
"d c #B8C4D8",
"f c #2BA472",
"g c #B7E2C8",
"h c #80CD9E",
"j c #ACDEC1",
"k c #CBEAD8",
"l c #53BB7C",
"z c #3FB075",
"x c #FEFEFE",
"c c #349669",
"v c #56A598",
"b c #DBF1E4",
"n c #47B575",
"m c #3AA585",
"M c #76C898",
"N c #23965B",
"B c #44AB83",
"V c #6DADB0",
"C c #A1AEC4",
"Z c #42946D",
/* pixels */
"                                                    .Xo             XO+X                                                        ",
"                                                   o@##$%&         *=###-.                                                      ",
"                                                   %#####=+*       X#####;o                                                     ",
"                                                   %########+X      :#####=>        .X&                                         ",
"                                                    %@########:&     ,<#####%      o@#=X                                        ",
"                                    1X>XX**.2        13%<######=%4    &5#####-     %###=X                                       ",
"                                    -######=O:X&2       1,$######+&     %=####%    %####6o                                      ",
"                                    6###########O%o2       ,;#####6*     >=####%    -####+.                                     ",
"                                    -##############+X1      1%=####=>     ,=####X    :####-                                     ",
"                                    .%%-:+O=#########OX1      o$#####%     ,=###=*   .$####X                                    ",
"                                          .o3%$=#######@*      1-#####%     ,####;.   7<###<1                                   ",
"                                               o>$#######:&      %=####%     %####%    >####%     o-%&                          ",
"                             82219228             3-=#####6*      ,=###=X     +####X    :###=*    O##;                          ",
"                        1*X%:06qqq6w+eXXr9          *:######%2     ,=###=o    &q###;    t=###:   o####%                         ",
"                      1:=###############=6e3r         3@#####:1     %####+1    >####>    %###=*   +###@                         ",
"                      :#####################=:34       r%=####+1     %####%     +###<1   .<###%   X####>                        ",
"                      %########====############O>1       Xq####+1    1$###=*    t####>    %###q1   +###+                        ",
"                      *6=q5%%y3ouroy,Xe+==#######6>4      X<####+1    &q###+     +###;    &=###%   ,####*                       ",
"                       9&&              .X%O=######$*      &;####-     %####X    >####X    +###:   1i###%                       ",
"                                           13+=######%1     .@####%     +###O1    ;###-    %###=r   %###;                       ",
"                                              r%=#####;&     3<###=*    ,####>    %###qr   1=###X   ,####*                      ",
"                        1r*X3X>X3X&9            p:#####qX     3=###O1    :###;    &=###X    $###%    <###%                      ",
"                   a&X%+q=########=6OeXo1         3<####=X     >####%    ,####X    +###%    %###5    :###:    o%%.              ",
"                 *X$=###################6%*1       o:#####%     :###=o    ;###:    %###+    >###q    %###;   o6##:              ",
"              4*:=#########################s>.      4%=####%    o=###5    %###q1   ,###=.   *####*   >###=*  3###=r             ",
"            2X@#########==@+:-::+@wq#########=%.      >=####X    %####X   3=###X   &=###X   4=###X   &=###*   =###>             ",
"           &;#######=@%33r2      ard3>5q#######q>1     X=###=*   1;###+    5###%    @###%    O###%    q###>   +###%             ",
"           :######@>&                  .p:=######@o     X=###O&   ,####X   -###$    $###%    +###%    $###%   -###%             ",
"           %####:31                       r%<#####=%1    %####:2   @###-   ,###=r   -###:    :###-    :###%   -###:             ",
"           *$q+3                            r>=#####+.    -####X   %###=&  .=###X   %###:    +###:    5###:   %###<             ",
"            2.         1.oXXX>XXX*&.1         &:#####O&   .;###6&  &=###X   ;###%   -###:    :###-    :###%   >###q             ",
"                   .*>:6=##########=O%X*2       3<####q*   3=###-   5###:   -###-   %###:    $###%    +###-   3###=.            ",
"                1X-q###################=O%*2     r+####qo   -###=*  >###64  %###:   -###:    ;###-    ;###:   ,###=o            ",
"              &%6#########################=+X1    1-####q*  r<###:  3####3  %###:   -###:    q###%    <###,   %###=&            ",
"            &-=#########=<$:-%%%:+s=#########sX1    %####6&  >###=&  ;###%  %###:   -###-   X=###,    =###-   ,###=1            ",
"          r%=#######6:>3r1        1dp>+=#######@X    %####$1 .<###%  -###%  -###+   :###:   X###=3   >###=    -###<     18      ",
"         *O######=-X1                  &>$=######:r   -####%  %###61 %###+  %###+   +###-   -###<    -###<    -###O   1:q:1     ",
"       1%######<>.                       23:=#####6X  15####X o=###> ,###<  %###+   =###>   :###-    :###;    -###:   :###%     ",
"      &$#####<%.                            o:=####=%4 &<###<. :###- ,###=& :###:  >###=    <###%    ;###%    $###%   :###:     ",
"     o6####=:r          1oXX%::+::%%X*r9      3$#####:1 ,####% >###q1*####o -###:  %###<   >####,   X####>    @###%   :###:     ",
"    *=####<3        1*%+=#############=w:Xo8   1%=####+. -###=*&=###X&=###* :###%  5###:   %###;    %###<    o####>   +###%     ",
"   *=####+&      2*%6#####################=+X.   36####+.&<###: ;###% =###> O###% &=###-   6###%    +###-    :###=    ;###-     ",
"   %####:1     1X@###########################qeo  o;####+1>####*-###:1=###X*####> %###=7  %####,   X####%    -###5    6###%     ",
"   1+##%     4XO#########q+%>XXXXX>%:0=########=:& .$####:1O###:,###O&####X:###=  :###$   +###+    :###<     =###%   X####X     ",
"    13o     X0#######q:>o18           &3%f=######=%1.$####%,###=o###=*####3%###: *####%  >####%   *=###%    %###=t   %###q      ",
"          .e=#####=+X.                   2o%O######O*1O####Xq###%####X###=.6###% -###<g  +###;    :###<t    $###5    :###5      ",
"         o@#####=:o                         .,O#####=%&q###<+###@=###%###@>####,o=###-  X####h   X####-    >####%    @###-      ",
"        >=#####:o          8roX%e:++++:%>Xo1  1><#####:%####<########O###:%###; -###=j &6###$    +###<7    :###i    X####,      ",
"       %#####<,         1X%@=#############=q+>o2.-#####@$################-=###%*####%  +###=,   %####%    X####%    %###<       ",
"      %#####:&        *-6######################w%&o<####=################@###=7$###<7 %####-   X=###;     $###<.    ;###:       ",
"     :####=%       1X$###########################=:%@#########=<<=###########-%####% X=###;g  &O###=t    >####%    >####h       ",
"    %####=,      2Xs########=65%%>3333X>%+<=########f=#####;,ka88aktl=######=%=###$ *=###=,  1+####%    3=###$     :###;    XX& ",
"   >####=,      o+#######q-,&1            roX:q##########zkxxxxxxxxxx4%#####<q###=to6####h  .+####:    1$###=,    X####-   %##q&",
"  *=###=t     &%=#####=53.           1.&o*oo&1.X@######=,8xx82222288xxxg<########hoq####%  1:####;.    :####%     +###ik   <###e",
" .;####,     &;#####=-3         1o>%+6=#####=qc+:v6###=gxx822      828xx4i######%X=####5  .+####<7    %####$1    X####%   X####X",
" :####-     Xq#####+3        .X:6#####################jxx22           2xxk<####;:#####-1 X<####<&    %####<t    &q###;    -###@ ",
"X####+     %=####<,        *%q#######################hxx2              2xxj####<#####-42>=####i7    %####=t     :####,    6###: ",
":###<&    %#####+r       *+###########=q6OsO6=######<8x8                2xx-########-2*+#####;&   1:####=,     %####-    >####3 ",
"+###>    %#####%       *+########q+%,oo14224.oyvs###txx2                 8xk######<t.e=#####-1   &+####=,     X=###i.    O###:  ",
"*O=-    >####=>      1%=######<-,1     .Xy:w=######=ax8                  2xx;####$X%=#####=>    Xq####=,     *=###=t    %####>  ",
" 1o    X=###=,      XO######$,1     .X:q###########-xx2                  28x,###@$#######+*   &+#####<o     *q####%    .<###$   ",
"      oq###=>      %=#####$3      o%6##############,x8                    8xg##########<,4  &e=#####+&     *q####-     %####,   ",
"      +####%     .:#####<%4     o:=#########=<@6###gx8                    8x4########<%& 2*-=#####=%.     X=####:     X=###:    ",
"     %####-     &+#####:&     &e=#######<5>ooyc=###kx8                    2xb######;%44o%c#######;o     .%#####-4    &O###=j    ",
"    *=###;.    .+####=>      >q######q-318*:=######gx8                    2xb###q5%*>:6########<>      o+#####-      5####%     ",
"    +###=3    1+####<3     r:######@>r  o:=########7x8                    8xk###==###########<>1     o%=####=%      %####5      ",
"   X####%     :####;&     X6#####<>4  .:=##########hx8                    8xj#############=5,.     .%q#####<t      %####i.      ",
"   +###;     %####;&     X=####=%1   X6######<:;###;xx2                  2xx%##########=5>o     2*eq######:r      %####=t   1** ",
"  >####,    X####<&     %#####;3   1:######;,*6#####4x8                  8x8<###==<$%,3.8   81X%c#######<>      4%####=>    ;##%",
"  :###;    &<###=j     %#####-1   &$#####<,4%=######hxx2                2xxt###q5eXoo*&oXX>:+q########=%1      &:####=,    %###6",
" *####%    :####,     >#####%    *6#####-11:########=4x82               8x8<########################q%&       36####=,    &=###:",
" :###<1   %####-     X=###=>    *=####<3 .+#####;=###n8x82            28xx%######################=$>1       1%#####<,    1;###=X",
" ;###%   r@###<g    *q###=,    X=####+& .+####=>@#####%xx82          28xx,####=###############<:>&8       9>6#####@t     -####- ",
"X####%   %####,    r;####>    oq####-1 .$####<7:#######%8xx222    822xxx,####=me>%5;O<<O@$-%,o1         .X@######-1     %####+  ",
">###<    <###5     -####%    &6####%   :####;g%####=####n4xxx882888xxxa-#######=+*1824922            1*%6######<,      %####<3  ",
" 5#=>   %####,    X####+     +####%   %####;g*=###<i#####=M4xxxxxxxxb,=###########=+%*r9        2.oX-N#######=%.      >=###=,   ",
" 137    ;###:     ;###q7    %####:4  X####<g1O###=>#########;htggj,z=#####=B<#########qc+:%%%%e:c=#########=:7       %#####>    ",
"       >####>    %####>    *=###;r  o<###=t %####h:###=####################=%,;##########################q%o       1:#####>     ",
"       %###<     6###$     @###=o   :####h o=###;&=###;################<#####e1o%<=###################=:,r        *@####=%      ",
"       6###%    %####,    %####%   X####:  -###=j:###<%###=############O:#####NX213X-O=###########<$%3.         .%=####=,       ",
"      X####>    <###:    &=###:    ;###ig *=###- ;###-:###+####=###;####:,=#####+*   4&33X>>>>>,3318          1XO#####<o        ",
"      %###i    %####t    :###=,   >####,  -###=gX####,$###%####5###;:####X7;#####=:X9                       1X@######:r         ",
"      +###:    :###+    &=###:    O###$  &q###% -###<1<###X=###>####3i###=X1%=######c>*2                 1*%q######<>           ",
"      ;###-   *=###%    %###=o   >####,  %###=t :###- =###tO###X;###:7=###=X o$#######=0%Xo.2       2.*X:6#######=-r    1X%o    ",
"      =###,   -###=&    O###-    +###$   5###:  6###%o####3:###%,###=&,####=X 23$##########60+ee%e:+Nq#########=-3     15##=&   ",
"     %###=    -###:    X####,   >####>  *=###% *####>&####X%###:k<###:8>####=y  23:=#########################q%o      &+####:   ",
"     >###i    6###%    :###$    %###<   %###=  %###= o####,>###=1%####X %#####:1   &,$=###################=:,.       *6####<&   ",
"     %###$   >####>    <###-    O###-   :###:  +###@ .=###X7=###Xki###@. >=####c*    2&3%$<=#########=<+>3.        4%=####Oo    ",
"     %###$   %###<    X####t   X####>   ;###:  %###:  =###, $###% ,####-  ,=####=%.      21&33,,,,,,3r4           *+#####$&     ",
"     %###:   +###5    -###O    %###<   *=###>  :###:  O###% %###<  :####X  o@#####sy.                           *:=#####-1      ",
"     X###-   -###:    :###:    +###:   >###=3  :###:  :###% j=###> g<###6o  1-######N%o                      1*:=#####=>        ",
"      ,-h    $###-    @###%    +###:   %###<   %###%  -###:  5###:  ,=###Or  2,<######q5Xo2               1*%c#######:&         ",
"             @###-    =###%    =###%   -###:   +###:  %###$  ,####X  %####;.   1%=#######q0Vpur.12211r*X%:6########@,           ",
"             <###>   3####,   >####,   :###5   -###%  ,###=.  <###:  4:####;o    &%q#########==66wws6==##########;,4            ",
"             <###%   %###=    X###=    :###:   -###-  r=###X  %####X  1+####so     .%@########################=:t1              ",
"             <###%   %###<    %###<    :###%   %###:   +###:  k<###+1  &$####=X      2o%;=#################=+,&                 ",
"             <###%   >###;    -###@    -###:   h###;   %###O   ,####%   1:#####:.       arX%:@q==###==<;-,t.                    ",
"             @###%   %###;    >###;    -###-   %###=.  t####X  2+###=X   1-#####6X           2..o37&o.4          1**            ",
"             :###%   %###;    -###;    :###:   &####X   $###-   t=###Or    >=#####@X2                          .>6#=X           ",
"             -###-   %###<    %###;    %###+    <###%   h###=&   h####+.    &;######+%r                      &>N####+           ",
"             %###:   ,###q    >###<    %###@    :###:   .<###-    -####:     .%=######6:yo2              2rX+=######:           ",
"             %###q   *####&   ,###=.   ,###=.   h###<1   %###=*   1;####:1     &5########6+ey*do19.1.CXX%Z=#######=-&           ",
"             3####3  &=###X   &####3   &=###X   j####X   &<###+    gi####:1      3:=##########==66wqq###########=-&             ",
"              <###%   @###%    =###X    ;###>    $###-    h####X    7<####$X      83%<########################<>&               ",
"              %##Or   :###%    $###-    -###:    %###=&   ki###<r    7<####6X        1X%@=################=i%,4                 ",
"               t,k    %###@    -###:    h###q1   g=###%    ,=###:     7;#####e*         2o,%:@q==#===q@:%,&2                    ",
"                      ,###=&   ,###6    t=###>    %###<r    -####%     1:#####qy1            41.og&o.42                         ",
"                      rq###%   7####X    5###:    t=###%    .;####X     4%######s%r                                             ",
"                       :###:    ;###%    %###=&    -###q&    7=###=X      j@######6%u1                                          ",
"                       %###=o   %###<    g=###%    7=###:     ,=###=%      1%=######=cep*2           r*XX                       ",
"                       .<###%   t####>    -###61    %####X     >####=%       &%=########=w:eXyyX>%%:cq##=X                      ",
"                        %###61   $###+    t=###%    g;###q*     h#####:.       &%<#######################:                      ",
"                        t=###%   h####X    :###=&    ,=###$.     h=####O*        .,+=####################-                      ",
"                         -###q&  k;###+    t=###:     %####+1     ,=####=e&        8r,-@=#############=+>                       ",
"                         t=###X   %####X    %####>    4+####:      &;#####6>.          2.3,,%--:-%%,,&1                         ",
"                          %##;     ;###<&   .<###6&    g;####:1     k-######6%o                                                 ",
"                           ,,&     ,####:    ,####$.    7<####+r      ,<######=+X&                                              ",
"                                    :####%    %####:     7<####O*      1%=#######=0%p*o122                                      ",
"                                    g<###=3   1;####:     t<####=%1      &%=#########==q6w:*                                    ",
"                                     ,####<&   g<####-     7;#####+*       r%@#############O                                    ",
"                                      %####;&   t=####:.    1:#####=:o       23%;##########=                                    ",
"                                       :####%    t=####;o     h=#####=:*        2&,%$<q####%                                    ",
"                                       .$###:     t<####qX     o$#######;%*          2.&73o                                     ",
"                                        75=+.      7<#####+&     ,<########+&                                                   ",
"                                          &         7+#####<o     1><#######%                                                   ",
"                                                      %=####>       .,$=####:                                                   ",
"                                                       ,;##=X          3%;=+r                                                   ",
"                                                        1,-t              .                                                     "
};
