/* XPM */
static char *rot_0[] = {
/* columns rows colors chars-per-pixel */
"128 128 80 1 ",
"  c None",
". c #72B998",
"X c #0C9953",
"o c #17A154",
"O c #00993D",
"+ c #25A75B",
"@ c #80CD9E",
"# c #33A869",
"$ c #1DA065",
"% c #44A67A",
"& c #A1CAC9",
"* c #78C3AA",
"= c #CCD1DB",
"- c #90D3AB",
"; c #049944",
": c #56A785",
"> c #64B28E",
", c #52A17E",
"< c #64A889",
"1 c #199B64",
"2 c #25A269",
"3 c #159957",
"4 c #7DC0C0",
"5 c #B7D9DC",
"6 c #B0DEC6",
"7 c #56A598",
"8 c #379876",
"9 c #469877",
"0 c #B8CAE6",
"q c #AAC2E6",
"w c #97BEC9",
"e c #A5C5D7",
"r c #C4CCD8",
"t c #ACAEB0",
"y c #B8C4D8",
"u c #2BA472",
"i c #11964D",
"p c #BBC1CA",
"a c #269866",
"s c #2EA083",
"d c #279876",
"f c #53A6AB",
"g c #6DADB0",
"h c #6CB1C3",
"j c #A8B4C7",
"k c #87B8C6",
"l c #95A6B4",
"z c #73A498",
"x c #65A697",
"c c #31938B",
"v c #3AA585",
"b c #77A6C8",
"n c #A1AEC4",
"m c #3BA295",
"M c #47A596",
"N c #23965B",
"B c #A6B8D6",
"V c #9AB3D7",
"C c #93ACD6",
"Z c #3FB075",
"A c #76C898",
"S c #B7E2C8",
"D c #CBEAD8",
"F c #DBF1E4",
"G c #EDF7F2",
"H c #FEFEFE",
"J c #ACDEC1",
"K c #77B2D7",
"L c #90AFE3",
"P c #349669",
"I c #97A9C6",
"U c #A5DBBA",
"Y c #E7E7E7",
"T c #D7ECE2",
"R c #809FD1",
"E c #1C9775",
"W c #42946D",
"Q c #65A7C7",
"! c #47B575",
"~ c #D8D8D8",
/* pixels */
"                                                         .XX.                                                                   ",
"                                                         oOOO+.          @#o.                                                   ",
"                                                         OOOOOO$.        oOOO%                                                  ",
"                                          &*&=           oOOOOOOO%-      ;OOOO#                                                 ",
"                                         :OOOO#>.&        %$OOOOOOO>     o;OOOOo-                                               ",
"                                         ;OOOOOOOO#.&       #oOOOOOO#-    +;OOOOo-                                              ",
"                                         ;OOOOOOOOOOO,.       <XOOOOOo-     oOOOOo-      <1:                                    ",
"                                          223OOOOOOOOOOo.       o;OOOO;.     ;OOOO+     #OOO#                                   ",
"                                              <%2OOOOOOOO#*       oOOOO;.     ;OOOO#    oOOOO<                                  ",
"                                                  #oOOOOOOO<       oOOOOO.     ;OOOO<    ;OOO;.                                 ",
"                             &-4.***.-&5            %2OOOOOO$*      oOOOO;.     ;OOO;.   oOOOOo                                 ",
"                           >3OOOOOOOOOO;2>.*          .$OOOOOO>      +OOOOX.    o;OOO+    oOOOO:                                ",
"                          %OOOOOOOOOOOOOOOOO$>-         :oOOOOO:      #OOOO+     oOOOO<    ;OOOX                                ",
"                          oOOOOOOOOOOOOOOOOOOOO2.6        2OOOOO#      oOOOO%     ;OOO;    oOOOO#                               ",
"                           %O;23::%7893OOOOOOOOOO;>&       %;OOOO#      oOOOO>     OOOO%    oOOO;      6&                       ",
"                                        ::o;OOOOOOO;>       >XOOOO#      ;OOOo     oOOO;     OOOO#    >XO,                      ",
"                                            :$XOOOOOO#*      >;OOOO%     %OOOO%     OOOO#    oOOOX    XOOO:                     ",
"                                               ,3OOOOOO<       oOOOO>     oOOO;     oOOOo    +OOOO<   ;OOO+                     ",
"                            0qwe0r               %;OOOOO#-     .;OOO;.     OOOO#     OOOO:    ;OOO+   oOOOO                     ",
"                      t.><2XOOOOOO1,<>*y           uOOOOOo.     %;OOOo     2OOO;     ;OOO+    XOOOX    ;OOO#                    ",
"                  r.<1OOOOOOOOOOOOOOOOO;%>*         :iOOOO;*     #OOOO%     OOOO#    XOOO;     OOOO:   ;OOOo                    ",
"                *<XOOOOOOOOOOOOOOOOOOOOOOOO%.p        $OOOO;.     oOOO;.    XOOOo     OOOO%    ;OOO#   oOOOO                    ",
"               #OOOOOOOOOOOXXasdX3OOOOOOOOOOO3>&       2OOOO;.     ;OOO#    #OOOO<    ;OOOo    ;OOOo    OOOO#                   ",
"              oOOOOOOOXu7fg       g7s%1;OOOOOOO;<       8OOOOX.    $OOOO<    ;OOO+    oOOOo    oOOOo    ;OOO#                   ",
"              oOOOO3u7                 g,8;OOOOOOo.      uOOOO$     XOOO$    oOOOo    oOOO;     OOO;    oOOOo                   ",
"               11$7                       h:XOOOOOO,      #OOOO#    #OOOO>   #OOOO     OOOO     OOOO    oOOO;                   ",
"                                             :XOOOOOo.     $OOOO<    ;OOO#    ;OOO#    ;OOO#    ;OOO#    OOOO     j&            ",
"                          wwk.lwt0             %;OOOO;>     XOOO;    $OOO;    oOOOo    ;OOO2    ;OOO;    OOOO    <OO,           ",
"                    t.<:$OOOOOOOOO1<<zl         x1OOOOO<    %OOOO#    OOOO#   oOOOX    ;OOO;    ;OOOO    ;OOOo   ;OOO           ",
"                 l<,OOOOOOOOOOOOOOOOOOO2<.        uOOOOO,    $OOOO<   ;OOOo   oOOO;    oOOO+    oOOO#    ;OOO;   ;OOO2          ",
"               <%OOOOOOOOOOOOOOOOOOOOOOOOO$<w      :;OOOO<    ;OOO$   oOOOo    OOO;    oOOOo    ;OOO;    ;OOO+   ;OOOo          ",
"             <3OOOOOOOOOO;a3cvcad;OOOOOOOOOO;<t     ,;OOOO<   oOOOO<   OOOO    OOOO    oOOOo    ;OOO;    ;OOOo   ;OOO;          ",
"           <3OOOOOOO;2,:7         b7v1;OOOOOOO;<     :;OOO;<   XOOO2   ;OOO$   OOOOo   XOOOo    oOOOo    ;OOO;   oOOOo          ",
"         .2OOOOOOO,%h                  ,2XOOOOOO3z    ,OOOOX   oOOO;   ;OOOo   ;OOO;   XOOO;    OOOO     ;OOO+   OOOOX          ",
"        <OOOOOO3:g                        :aOOOOOO,    %OOOO$   OOOO2  oOOOo   ;OOO;   ;OOOo    OOOO     OOOO    OOOO;          ",
"      l#OOOOOX%                             :XOOOOO3.   $OOOO%  oOOOo  oOOO;   OOOOX   ;OOOo   2OOO;    #OOOO    oOOOo          ",
"      oOOOOOux            wlg<.zzllw          %;OOOO;<   XOOO;  oOOOO  oOOO;   OOOO+   OOOO    oOOO;    $OOO;    XOOOo          ",
"     #OOOO3:         z<<9XOOOOOOOOO;1,<<n      x1OOOOO<  :OOOO2  ;OOOo  OOOO   OOOO   $OOO;    XOOO;    oOOOo    oOOOX          ",
"      XOO$x       z<2OOOOOOOOOOOOOOOOOOO;,zw     uOOOOO,  oOOO;< ;OOOo  OOOO  #OOOO   oOOOo    ;OOOo    oOOOo    ;OOOX          ",
"       %:       <$OOOOOOOOOOOOOOOOOOOOOOOOO;,z    :;OOOO:  ;OOO$ +OOOX  OOOO  +OOO;   XOOOo   %OOOO     ;OOOo    ;OOO+          ",
"              <;OOOOOOOOOO3s8m7Mmu13OOOOOOOOOO2z   ,;OOOO< +OOOO  OOOO  OOOO  oOOO;   OOOOo   oOOOo    2OOO;     OOOO           ",
"            <3OOOOOOOX$,:f          f,%NOOOOOOOO%z  ,;OOO;< ;OOO$ ;OOO$ OOOO  oOOOo  2OOO;    ;OOO+    oOOO;    2OOO;    <,<    ",
"          z2OOOOOO;,:                   x%3OOOOOOO,  %OOOO3 oOOO; ;OOOo OOOO  ;OOOo  oOOOo   #OOOO     ;OOO$    3OOO;   $OOO2   ",
"         ,;OOOOO3%h                        x%OOOOOONz #OOOO# OOOO%;OOOooOOO; %OOOO  ,OOOO#   XOOOo    #OOO;     ;OOOo   oOOOo   ",
"        2OOOOOX,                BVCVB        xuOOOOOO< oOOOO,oOOOooOOOXoOOO; oOOOo  $OOOX   ,OOOO#    XOOOo    %OOOO    XOOOX   ",
"      zXOOOOOug           z<,,1XOOOOOa9,:xg    <3OOOOO,.;OOOX2OOO;XOOO;oOOOX ;OOOo <;OOO+   3OOOo    %OOOOZ    $OOO;    ;OOOo   ",
"     <;OOOO3:         g<,;OOOOOOOOOOOOOOOOO2,z   %OOOOO$:OOOO#OOOOoOOOooOOOX#OOOO  $OOO;   #OOOO#    XOOOo     ;OOOo    OOOO    ",
"    <;OOOO$         <9OOOOOOOOOOOOOOOOOOOOOOOO3,z :;OOOO$#OOO;;OOOXOOO3;OOO#oOOOo ,OOOOo   ;OOOo    #OOOO%    #OOOO    oOOO;    ",
"   z;OOOO2       l,3OOOOOOOOOOOXX1d;3;OOOOOOOOOOO2zxiOOOO$OOOOOOOOOOOOXOOOO%OOOOo 3OOO;   oOOO;%    ;OOOo     3OOOo    oOOO;    ",
"   XOOOO,       <3OOOOOOO;a,,7h      gf7%,;OOOOOOOO9z$OOOOOOOOOOOOOOOOOOOOooOOO; 2OOOO#  ,OOOO$    oOOO;%    #OOOO#    ;OOO2    ",
"  3OOOO#      <NOOOOOOO%:x                 7:3OOOOOO;<;OOOOOOOOOOOOOOOOOOO#OOOO#,OOOOo  ,OOOOo    ,OOOO2     XOOOo    2OOOO     ",
" $OOOO$      9OOOOOOX%g                       72OOOOOOOOOOOoASDFFDSAoOOOOOOOOOo<3OOO;  z;OOO;:   ,;OOOX     2OOOO%    3OOOo     ",
" OOOOo     z3OOOOO3%           lzx,,83X33;89,:<lg$OOOOOOO#6GHHHHHHHHG6#OOOOOOO,3OOOO# <;OOOO%   z;OOO;:    <;OOOo     ;OOOo     ",
" OOOi     <;OOOOO,          z<9;OOOOOOOOOOOOOOOO3,xXOOOO@GHHHGGGGGGHHHG@OOOOO#$OOOO2 zXOOOO#   <iOOOO%     3OOO;     2OOO;      ",
" ,$u>    ,OOOOO3x        z:NOOOOOOOOOOOOOOOOOOOOOOOOOOO6HHHG        GHHH6OOOO;OOOOo <;OOOO2   ziOOOO#     2OOOO#     ;OOOo      ",
"        ,OOOOO2        <,OOOOOOOOOOOOOOOOOOOOOOOOOOOOOJHHG            GHHJOOOOOOOo ,OOOOO%   <XOOOO$     9OOOOo     $OOO;<      ",
"       :OOOO;:       z,OOOOOOOOOu,7fxKV wLgf:,23OOOOO@HHG              GHH@OOOOOoz1OOOOO#   <OOOOO2     <OOOO;     <;OOOo       ",
"      ,OOOO;:       ,;OOOOOO;2x>         gx7x79xmOOO+GHG                GHG+OOO%<;OOOO;:   9OOOOO$     <;OOO;:     3OOO;    :aP<",
"     <;OOO;,      <1OOOOOO2%        I,,9XOOOOOOOOOOOUHH                  HHUOOO;OOOOOX:  :XOOOOO%     ,;OOOO%     9OOOO#   ,OOOX",
"     ;OOOO,      ,;OOOOO2:        ,,;OOOOOOOOOOOOOO;GHG                  GHG;OOOOOOO2  zPOOOOO;<     ,OOOOO%     <;OOOX    1OOOX",
"    3OOOO%      POOOOO3<       z,;OOOOOOOOOOOOOOOOO.HHY                  YHH.OOOOOX< ,POOOOOOo.    zaOOOOO:      XOOO;%    ;OOOo",
"   9OOOO$      3OOOOO%       z,OOOOOOOOO;1%,%7gmOOOUHG                    GHUOOO;:z,3OOOOOOX%     ,XOOOO;:      3OOOO#    2OOO; ",
"   ;OOOo      3OOOO;<       ,OOOOOOO;2%xg  x:N;OOOODHG                    GHDOOO2XOOOOOOO;u.    zaOOOOOX<      2OOOO$     ;OOOo ",
"  $OOOO%     1OOOOox      ,3OOOOOOX,g   g:aOOOOOOOOTHG                    GHTOOOOOOOOOOO%.    <,OOOOOO2       3OOOOo     $OOO;  ",
"  ;OOO2     3OOOOo       POOOOOO2:    g,XOOOOOOOOOOTHG                    GHTOOOOOOOO3:g   z,1OOOOOO;:      zaOOOOo     ,OOOO+  ",
" 3OOO;     aOOOOo      z3OOOOO$x    g9;OOOOOOO;3OOODHG                    GHDOOOOOo:#   x99;OOOOOOOu.      <XOOOOo      XOOO;   ",
" ;OOO#    9OOOO3      x;OOOO;,     :XOOOOOO;%x<XOOOUHG                    GHUOOOsx<x,,PXOOOOOOOOO2>       ,;OOOO$      aOOOO#   ",
"$OOO;    ,;OOOo      ,OOOOO$.    zPOOOOOO3<g<NOOOOO.HHY                  YHH.OOOOOOOOOOOOOOOOO;%>       x3OOOOO2      9OOOOo    ",
";OOO+    XOOO;<     ,OOOOO%     <XOOOOO3<  POOOOOOO;GHG                  GHG;OOOOOOOOOOOOOOO2:.       xPOOOOOO%      ,;OOO;     ",
";OOO    2OOOO#     <OOOOO%     ,OOOOO;:  <3OOOOOOOOOJHH                  HHJOOOOOOOOOOOO$%:g        :POOOOOOX>      ,;OOO;<     ",
"<3;%    ;OOOo     <;OOO;:     POOOOO$.  ,;OOOOO:2OOOoGHG                GHGoOOO:<M<%77x*         xP3OOOOOOO%       ,;OOOO%      ",
"       3OOO;:     ;OOOO%     aOOOOO,   ,OOOOOo.$OOOOO@HHG              GHH@OOOOOa9,7f      Rxx,93OOOOOOOOu.       ,;OOOO%       ",
"      ,;OOO2     3OOOO#     aOOOO;<   POOOOO#g3OOOOOOOJHHG            GHHJOOOOOOOOOOOO1ddE3OOOOOOOOOOOOu%        9OOOOO#        ",
"      3OOO;     9OOOO#     9OOOO3<   POOOO;< 3OOOO;OOOO6HHHG        GHHH6OOOOOOOOOOOOOOOOOOOOOOOOOOO3%>        z1OOOOO%    <8,, ",
"      ;OOO2     ;OOOo     9OOOO3>   ,OOOO;< POOOOo#OOOOO@GHHHGGGGGGHHHG@OOOO;>%;OOOOOOOOOOOOOOOOOo:<          ,;OOOO;:     iOO; ",
"     oOOO;     3OOO;:    ,;OOO;<   ,OOOO;. 9OOOOo,OOOOOOO#SGHHHHHHHHGS#OOOOOO;,g.<:u2XXOO;XXu%<>*           ,NOOOOOo>     3OOOO ",
"     XOOOo    ,OOOO#     3OOOO<   :;OOO;<  ;OOO;>XOOOOOOOOOo@STFFTS@oOOOOOOOOOO;,,     .4                 ,3OOOOOO#      POOOO2 ",
"     OOOO#    3OOOo     2OOOO#    3OOOO%  3OOOO:2OOOO#OOOOOOOOOOOOOOOOOOOX%OOOOOOON,x                  ,9XOOOOOO3>      POOOOo  ",
"    XOOO;    2OOOO#    ,;OOOo    2OOOO%  2OOOO# ;OOOooOOOOOOOOOOOOOOOOOOOO9.$OOOOOOOON9,7f        7,98XOOOOOOO;:       POOOOX>  ",
"    ;OOOo    3OOOo     3OOO;    ,;OOO$   iOOOo $OOOO%OOOOoOOOOOOOOOOOOoOOOO3g>$OOOOOOOOOO;X89XP833OOOOOOOOOO;:.       9OOOO;<   ",
"    ;OOO2    OOOO#    %OOOO#    3OOO;   3OOOO: XOOOo$OOO;oOOO;OOO;OOOO%oOOOOix >#;OOOOOOOOOOOOOOOOOOOOOOOO$:4        aOOOO;>    ",
"    OOOO    3OOO;     XOOOo    %OOOO#   ;OOO$  OOOO%;OOOo;OOOoOOO;#OOO;<oOOOO;,  *>%XOOOOOOOOOOOOOOOOOO2%.         x3OOOO;.     ",
"   oOOO;    XOOO+    ,OOOO#    3OOOo   $OOO;> 3OOO; ;OOOooOOO+;OOO#;OOO3.#OOOOOPx    .::%1OOOOOOOX$%:>4           9OOOOOo<      ",
"   oOOOo    OOOO%    XOOOo    2OOOO%   ;OOOo  XOOO$ ;OOOo;OOO;oOOOX%OOOO1 %OOOOO;,x       &.444.w               ,3OOOOOo.       ",
"   ;OOOo   3OOO;     ;OOO#    3OOOo   $OOOO,  OOOO# ;OOO#oOOOX$OOO; oOOOO, >XOOOOO;9g                         9aOOOOOO%         ",
"   oOOO+   ;OOOo    3OOO;     OOOO#   3OOOo  3OOO;  OOOO ;OOO; ;OOO3 ;OOO;, .%OOOOOO;87                    W83OOOOOO3.          ",
"    %2%    ;OOO#    XOOO+    XOOO;    ;OOO#  XOOOo  OOOO #OOO; oOOOX :OOOO;,  >oOOOOOOO;a97            Q,91OOOOOOO;<            ",
"           OOOO     ;OOO#    XOOO+   $OOOO   ;OOO+  OOO;  OOOO !OOOO$ :OOOO;,   >$OOOOOOOOO;a8,8m7c9P8XOOOOOOOOO;<*             ",
"          oOOO;    3OOO;     OOOO%   ;OOOo   ;OOOo  OOO;  ;OOOo oOOOX  :OOOO;x    >#OOOOOOOOOOOOOOOOOOOOOOOOOOo:*      x7       ",
"          oOOOo    oOOOo    oOOO;    ;OOOo   OOOO   OOOO  oOOOX ,OOOO2  #OOOO;,     *<2OOOOOOOOOOOOOOOOOOOOo:.        aOO3      ",
"          ;OOO;    ;OOOo    XOOOo    ;OOO#   OOOO   OOOO  +OOOX  +OOO;   :OOOOOP       *>%#;OOOOOOOOOO;$%>.         xXOOOO      ",
"          XOOOo    ;OOO#    ;OOOo    OOOO   ;OOO;   OOOO  %OOOO  >;OOO3   <OOOOOi7         &**..x:g..*&            9;OOOOo      ",
"          ;OOO;    OOOO     OOOO#   XOOO;   oOOO;   ;OOOo  oOOO3  %OOOOP   >;OOOOO37                             ,3OOOOO2.      ",
"          OOOO;    OOO;     OOOO    oOOOo   +OOOo   XOOOo  #OOO;   oOOOO,   *#OOOOOO8x                         :aOOOOOO:        ",
"          OOOO;   ;OOO;    oOOO;    oOOO;   #OOOX   oOOOX  !OOOO#  >;OOO;:    >;OOOOOOi97                   88;OOOOOO$.         ",
"          ;OOOO   +OOOo    ;OOO;    XOOOo   OOOO;   $OOO;   oOOO;   <OOOOi<    *:OOOOOOOOX8,7          gfa8;OOOOOOOX>           ",
"          oOOOo   oOOOo    +OOOo    ;OOO;   +OOOO   #OOOO   !OOOO,   %OOOOi<     .%OOOOOOOOOO;a88acX,aa;OOOOOOOOO;>-            ",
"          ;OOO;   oOOO;    oOOOo    ;OOO;    OOOO    ;OOO$   oOOO;    #OOOOix      *<XOOOOOOOOOOOOOOOOOOOOOOOOO#>&              ",
"          +OOO;   +OOOo    XOOOO    ;OOOO    ;OOO$   oOOO;   !OOOO$    #OOOO;,        .:XOOOOOOOOOOOOOOOOOOO$<.                 ",
"          ZOOOo   +OOO;    oOOOo    oOOOo    oOOOo   #OOO;    +OOO;<    %OOOOOP          *><2OOOOOOOOOOX%:>-                    ",
"           %OO%   #OOO;    +OOO;    XOOO;    oOOO;    ;OOOo   .;OOO3     <OOOOO3,            5&***g***&                         ",
"            *-     OOOO    oOOO;    +OOO;    +OOO;    +OOOX    %OOOO$     .XOOOOO37                                             ",
"                   ;OOOo   #OOO;     OOOO    !OOOO    !OOOO2    +OOOO,     @#OOOOOOP7                        793x               ",
"                   oOOOX    OOOO     ;OOOo    ;OOOX    oOOO;     oOOOO,      >;OOOOOOX87                  g31OOOO%              ",
"                   oOOO;    ;OOOo    oOOOX    +OOO;    ZOOOO%    .;OOOO,      -:OOOOOOOO38ssf         f,8POOOOOOO2              ",
"                   #OOO;    oOOOX    oOOO;    #OOOO     oOOO;     >;OOOO9       -%;OOOOOOOOOO3d83a38X;OOOOOOOOOO#               ",
"                    OOOO$   oOOO;    #OOO;     ;OOO$    >OOOO$     >OOOOO2        ->oOOOOOOOOOOOOOOOOOOOOOOOO;:.                ",
"                    oOOOX   ZOOOO     ;OOOo    #OOO;     #OOOO,     .;OOOO1x         .>oOOOOOOOOOOOOOOOOOO;<.&                  ",
"                    +OOO;    ;OOOX    oOOOX    .OOOOX     XOOO;:     .XOOOO;,           -.>%$OOOOOOOOX#>>*6                     ",
"                    >OOOO2   +OOO;    #OOO;     #OOO;     >OOOOX      @oOOOOO1,              5&&ww&&5                           ",
"                     oOOOX   ZOOOO     ;OOO;    .OOOOo     :OOOOX       :OOOOOO1,                                               ",
"                     ZOOOo    ;OOOo    #OOO;     #OOOO%     #OOOOX       .oOOOOOO;8g                                            ",
"                      #O;.    #OOO;    .OOOO;     ;OOO;      +OOOOo       U>OOOOOOOO3$ag                                        ",
"                       @-     .OOOOX    #OOO;     >OOOO3      #OOOOX:       -<OOOOOOOOOO;$919f788a1E2                           ",
"                               #OOOO    .;OOO;     #OOOOo     J+OOOO;,        ->XOOOOOOOOOOOOOOOOOOOOo                          ",
"                               A;OOO;    %OOOOo     oOOOO%      #OOOOO1,        5.<;OOOOOOOOOOOOOOOOO#                          ",
"                                %OOOOX    oOOO;     .;OOOOX      :OOOOO;$          S*>:XOOOOOOOOOOO;:                           ",
"                                 oOOO;    >OOOO;     >OOOOO%      .XOOOOO;%             &&.*..>.**-5                            ",
"                                 >OOOO;    %OOOO;     <OOOOOo      -%OOOOOO;$%                                                  ",
"                                  %OOOOo    +OOOOo     .OOOOOo       .oOOOOOOO;32x                                              ",
"                                   +OOO+    @oOOOOX     >OOOOOX$       .XOOOOOOOOOX$$2                                          ",
"                                   -#O:      .;OOOOo     .;OOOOO$       S.2OOOOOOOOOOOX                                         ",
"                                     5        .;OOOOX     @oOOOOO;%        *<XOOOOOOOOO                                         ",
"                                               A;OOOO;o     :OOOOOO;2<        @.,XOOOO%                                         ",
"                                                -oOOOO;      .oOOOOOOO$           &*..                                          ",
"                                                 U#OOOo        .;OOOOOO                                                         ",
"                                                   >OoA         J>;OOOo                                                         ",
"                                                    S              <;;.                                                         "
};
